<?xml version="1.0" encoding="UTF-8"?>
<svg id="Layer_2" data-name="Layer 2" xmlns="http://www.w3.org/2000/svg" viewBox="0 0 525.06 149.13">
  <defs>
    <style>
      .cls-1 {
        fill: #115746;
      }
    </style>
  </defs>
  <g id="Layer_1-2" data-name="Layer 1">
    <g>
      <path class="cls-1" d="M74.83,0h37.15C132.49,0,149.13,16.63,149.13,37.15h0c0,20.52-16.63,37.15-37.15,37.15h-37.15V0Z"/>
      <path class="cls-1" d="M74.83,149.13h-37.41c-20.66,0-37.41-16.75-37.41-37.41h0c0-20.66,16.75-37.41,37.41-37.41h37.41v74.83Z"/>
      <path class="cls-1" d="M74.83,149.13c0-36.38,33.26-66.4,74.3-66.4h0v66.4h-74.3Z"/>
      <path class="cls-1" d="M74.83,0c0,41.03-33.79,74.3-74.83,74.3h0V0h74.83Z"/>
      <path class="cls-1" d="M178.74,119.74l62.46-85.69h33.43l-62.64,85.69h-33.25ZM178.74,139.09v-19.35l18.3-4.4h76.01v23.75h-94.31ZM182.26,38.63V14.87h92.37v19.18l-18.65,4.57h-73.72ZM321.77,140.85c-7.86,0-14.9-1.94-21.11-5.81-6.1-3.87-10.97-9.15-14.6-15.84-3.52-6.69-5.28-14.31-5.28-22.87s1.76-16.19,5.28-22.87c3.64-6.69,8.5-11.96,14.6-15.84,6.22-3.87,13.25-5.81,21.11-5.81,5.75,0,10.91,1.11,15.48,3.34,4.69,2.23,8.5,5.34,11.44,9.33,2.93,3.87,4.57,8.33,4.93,13.37v36.95c-.35,5.04-2,9.56-4.93,13.55-2.81,3.87-6.57,6.92-11.26,9.15-4.69,2.23-9.91,3.34-15.66,3.34ZM327.23,116.57c5.75,0,10.38-1.88,13.9-5.63,3.52-3.87,5.28-8.74,5.28-14.6,0-3.99-.82-7.51-2.46-10.56-1.52-3.05-3.75-5.4-6.69-7.04-2.81-1.76-6.1-2.64-9.85-2.64s-7.1.88-10.03,2.64c-2.82,1.64-5.1,3.99-6.86,7.04-1.64,3.05-2.46,6.57-2.46,10.56s.82,7.33,2.46,10.38c1.64,3.05,3.93,5.45,6.86,7.21,2.93,1.76,6.22,2.64,9.85,2.64ZM345.35,139.09v-23.05l4.05-20.76-4.05-20.76v-20.94h26.39v85.51h-26.39ZM390.7,139.09V53.58h26.92v85.51h-26.92ZM417.62,92.12l-11.26-8.8c2.23-9.97,5.98-17.71,11.26-23.23,5.28-5.51,12.61-8.27,21.99-8.27,4.1,0,7.68.65,10.73,1.94,3.17,1.17,5.92,3.05,8.27,5.63l-16.01,20.23c-1.17-1.29-2.64-2.29-4.4-2.99-1.76-.7-3.75-1.06-5.98-1.06-4.46,0-8.03,1.41-10.73,4.22-2.58,2.7-3.87,6.8-3.87,12.32ZM478.79,139.09V18.22h26.92v120.88h-26.92ZM459.43,76.46v-22.87h65.63v22.87h-65.63Z"/>
    </g>
  </g>
</svg>